<?xml version="1.0" encoding="UTF-8"?>
<svg id="Layer_1" xmlns="http://www.w3.org/2000/svg" viewBox="0 0 226.9 399.12">
    <defs>
        <style>
            .cls-1 {
                letter-spacing: -.01em;
            }

            .cls-2 {
                letter-spacing: -.01em;
            }

            .cls-3 {
                letter-spacing: -.02em;
            }

            .cls-4 {
                letter-spacing: -.02em;
            }

            .cls-5,
            .cls-6,
            .cls-7,
            .cls-8 {
                fill: #231f20;
            }

            .cls-6 {
                font-size: 10.44px;
            }

            .cls-6,
            .cls-7,
            .cls-8 {
                font-family: BelyDisplay-Regular, 'Bely Display';
            }

            .cls-9 {
                letter-spacing: 0em;
            }

            .cls-10 {
                fill: none;
                stroke: #231f20;
                stroke-miterlimit: 10;
                stroke-width: 5px;
            }

            .cls-11 {
                letter-spacing: -.02em;
            }

            .cls-7 {
                font-size: 9.94px;
            }

            .cls-12 {
                letter-spacing: 0em;
            }

            .cls-13 {
                letter-spacing: -.02em;
            }

            .cls-8 {
                font-size: 18.31px;
            }

            .cls-14 {
                letter-spacing: 0em;
            }
        </style>
    </defs>
    <polygon class="cls-10"
        points="205.43 2.5 168.84 2.5 150.54 34.19 168.84 65.88 205.43 65.88 223.73 34.19 205.43 2.5" />
    <line class="cls-10" x1="187.13" y1="65.88" x2="187.13" y2="249.02" />
    <polygon class="cls-10" points="121.73 185.19 174.71 201.83 174.71 168.56 121.73 185.19" />
    <line class="cls-10" x1="224.36" y1="249.71" x2="224.36" y2="399.12" />
    <polygon class="cls-10"
        points="130.94 169.35 32.17 168.56 4.31 185.19 24.26 201.83 133.48 201.04 96.32 185.19 130.94 169.35" /><text
        class="cls-8" transform="translate(27.27 191)">
        <tspan x="0" y="0">Design</tspan>
    </text>
    <polygon class="cls-10" points="38.34 256.4 50.93 201.83 25.75 201.83 38.34 256.4" />
    <polygon class="cls-10"
        points="54.2 265.42 22.58 265.42 6.76 292.8 22.58 320.19 54.2 320.19 70.01 292.8 54.2 265.42" /><text
        class="cls-7" transform="translate(23.58 289.27)">
        <tspan x="0" y="0">b</tspan>
        <tspan class="cls-4" x="6.42" y="0">r</tspan>
        <tspan x="11.02" y="0">a</tspan>
        <tspan class="cls-2" x="16.46" y="0">n</tspan>
        <tspan x="22.89" y="0">d</tspan>
        <tspan x="-4.89" y="11.93">i</tspan>
        <tspan class="cls-12" x="-1.54" y="11.93">d</tspan>
        <tspan class="cls-9" x="4.88" y="11.93">e</tspan>
        <tspan class="cls-11" x="9.89" y="11.93">n</tspan>
        <tspan x="16.21" y="11.93">tity</tspan>
    </text>
    <polygon class="cls-10" points="112.04 256.4 124.63 201.83 99.46 201.83 112.04 256.4" />
    <polygon class="cls-10"
        points="127.91 265.42 96.28 265.42 80.47 292.8 96.28 320.19 127.91 320.19 143.72 292.8 127.91 265.42" /><text
        class="cls-6" transform="translate(90.65 292.18)">
        <tspan x="0" y="0">r</tspan>
        <tspan class="cls-3" x="5.03" y="0">ec</tspan>
        <tspan x="15.3" y="0">ognit</tspan>
        <tspan x="10.93" y="12.53">-ion</tspan>
    </text>
    <polygon class="cls-10" points="75.49 134.27 62.9 166.35 88.08 166.35 75.49 134.27" />
    <polygon class="cls-10"
        points="91.3 70.99 59.68 70.99 43.87 98.37 59.68 125.76 91.3 125.76 107.12 98.37 91.3 70.99" /><text
        class="cls-6" transform="translate(51.23 99.86)">
        <tspan class="cls-14" x="0" y="0">c</tspan>
        <tspan x="5.37" y="0">ha</tspan>
        <tspan class="cls-3" x="17.94" y="0">r</tspan>
        <tspan class="cls-1" x="22.77" y="0">a</tspan>
        <tspan x="28.38" y="0">c</tspan>
        <tspan class="cls-13" x="33.8" y="0">t</tspan>
        <tspan x="38.22" y="0">er</tspan>
    </text>
    <polygon class="cls-5"
        points="199.46 12.84 174.81 12.84 162.48 34.19 174.81 55.54 199.46 55.54 211.79 34.19 199.46 12.84" />
    <polygon class="cls-5" points="123.61 185.19 143.38 191.4 143.38 178.99 123.61 185.19" />
    <rect class="cls-5" x="150.54" y="173.48" width="5.08" height="20.89" />
    <rect class="cls-5" x="162.48" y="171.92" width="5.08" height="26.05" />
    <line class="cls-10" x1="184.69" y1="249.02" x2="226.9" y2="249.02" />
</svg>